<svg width="41" height="40" viewBox="0 0 41 40" fill="none" xmlns="http://www.w3.org/2000/svg">
<path d="M12.25 16.25C13.5781 16.25 14.6719 17.4219 14.6719 18.75C14.6719 20.1562 13.5781 21.25 12.25 21.25C10.8438 21.25 9.75 20.1562 9.75 18.75C9.75 17.4219 10.8438 16.25 12.25 16.25ZM21 16.25C22.3281 16.25 23.4219 17.4219 23.4219 18.75C23.4219 20 22.25 21.1719 21 21.1719C19.6719 21.1719 18.5 20.0781 18.5 18.75C18.5 17.3438 19.5938 16.25 21 16.25ZM29.75 16.25C31.0781 16.25 32.25 17.4219 32.1719 18.75C32.1719 20.1562 31.0781 21.25 29.75 21.25C28.4219 21.25 27.25 20.1562 27.25 18.75C27.25 17.4219 28.3438 16.25 29.75 16.25ZM21 2.5C32.0156 2.5 40.9219 9.92188 40.9219 18.8281C40.9219 27.7344 32.0156 35 21 35C18.4219 35 15.9219 34.6094 13.7344 33.9062C11.3906 35.5469 7.64062 37.5 2.875 37.5C2.09375 37.5 1.39062 37.1094 1.15625 36.3281C0.921875 35.625 1 34.8438 1.54688 34.2969C1.54688 34.2969 3.96875 31.6406 5.14062 28.5938C2.5625 25.8594 1 22.4219 1 18.75C1 9.76562 9.90625 2.5 21 2.5ZM21 31.25C29.9062 31.25 37.0938 25.7031 37.0938 18.75C37.0938 11.875 29.8281 6.25 20.9219 6.25C12.0156 6.25 4.75 11.875 4.75 18.75C4.75 22.1094 6.39062 24.6094 7.79688 26.0938L9.4375 27.8125L8.57812 30C8.1875 31.0938 7.64062 32.1875 7.01562 33.125C8.89062 32.5 10.4531 31.6406 11.5469 30.8594L13.0312 29.7656L14.8281 30.3125C16.7812 30.9375 18.8906 31.25 21 31.25Z" fill="#F19011"/>
</svg>
