<svg width="136" height="24" viewBox="0 0 136 24" fill="none" xmlns="http://www.w3.org/2000/svg">
<path d="M15.2695 8.55859L20.2969 9.29688C20.7188 9.36719 21.0703 9.64844 21.2109 10.0703C21.3516 10.457 21.2461 10.9141 20.9297 11.1953L17.2734 14.8164L18.1523 19.9492C18.2227 20.3711 18.0469 20.793 17.6953 21.0391C17.3438 21.3203 16.8867 21.3203 16.5 21.1445L12 18.7188L7.46484 21.1445C7.11328 21.3203 6.62109 21.3203 6.30469 21.0391C5.95312 20.793 5.77734 20.3711 5.84766 19.9492L6.69141 14.8164L3.03516 11.1953C2.71875 10.9141 2.61328 10.457 2.75391 10.0703C2.89453 9.64844 3.24609 9.36719 3.66797 9.29688L8.73047 8.55859L10.9805 3.88281C11.1562 3.49609 11.543 3.25 12 3.25C12.4219 3.25 12.8086 3.49609 12.9844 3.88281L15.2695 8.55859Z" fill="#FFBA61"/>
<path d="M43.2695 8.55859L48.2969 9.29688C48.7188 9.36719 49.0703 9.64844 49.2109 10.0703C49.3516 10.457 49.2461 10.9141 48.9297 11.1953L45.2734 14.8164L46.1523 19.9492C46.2227 20.3711 46.0469 20.793 45.6953 21.0391C45.3438 21.3203 44.8867 21.3203 44.5 21.1445L40 18.7188L35.4648 21.1445C35.1133 21.3203 34.6211 21.3203 34.3047 21.0391C33.9531 20.793 33.7773 20.3711 33.8477 19.9492L34.6914 14.8164L31.0352 11.1953C30.7188 10.9141 30.6133 10.457 30.7539 10.0703C30.8945 9.64844 31.2461 9.36719 31.668 9.29688L36.7305 8.55859L38.9805 3.88281C39.1562 3.49609 39.543 3.25 40 3.25C40.4219 3.25 40.8086 3.49609 40.9844 3.88281L43.2695 8.55859Z" fill="#FFBA61"/>
<path d="M71.2695 8.55859L76.2969 9.29688C76.7188 9.36719 77.0703 9.64844 77.2109 10.0703C77.3516 10.457 77.2461 10.9141 76.9297 11.1953L73.2734 14.8164L74.1523 19.9492C74.2227 20.3711 74.0469 20.793 73.6953 21.0391C73.3438 21.3203 72.8867 21.3203 72.5 21.1445L68 18.7188L63.4648 21.1445C63.1133 21.3203 62.6211 21.3203 62.3047 21.0391C61.9531 20.793 61.7773 20.3711 61.8477 19.9492L62.6914 14.8164L59.0352 11.1953C58.7188 10.9141 58.6133 10.457 58.7539 10.0703C58.8945 9.64844 59.2461 9.36719 59.668 9.29688L64.7305 8.55859L66.9805 3.88281C67.1562 3.49609 67.543 3.25 68 3.25C68.4219 3.25 68.8086 3.49609 68.9844 3.88281L71.2695 8.55859Z" fill="#FFBA61"/>
<path d="M99.2695 8.55859L104.297 9.29688C104.719 9.36719 105.07 9.64844 105.211 10.0703C105.352 10.457 105.246 10.9141 104.93 11.1953L101.273 14.8164L102.152 19.9492C102.223 20.3711 102.047 20.793 101.695 21.0391C101.344 21.3203 100.887 21.3203 100.5 21.1445L96 18.7188L91.4648 21.1445C91.1133 21.3203 90.6211 21.3203 90.3047 21.0391C89.9531 20.793 89.7773 20.3711 89.8477 19.9492L90.6914 14.8164L87.0352 11.1953C86.7188 10.9141 86.6133 10.457 86.7539 10.0703C86.8945 9.64844 87.2461 9.36719 87.668 9.29688L92.7305 8.55859L94.9805 3.88281C95.1562 3.49609 95.543 3.25 96 3.25C96.4219 3.25 96.8086 3.49609 96.9844 3.88281L99.2695 8.55859Z" fill="#FFBA61"/>
<path d="M127.27 8.55859L132.297 9.29688C132.719 9.36719 133.07 9.64844 133.211 10.0703C133.352 10.457 133.246 10.9141 132.93 11.1953L129.273 14.8164L130.152 19.9492C130.223 20.3711 130.047 20.793 129.695 21.0391C129.344 21.3203 128.887 21.3203 128.5 21.1445L124 18.7188L119.465 21.1445C119.113 21.3203 118.621 21.3203 118.305 21.0391C117.953 20.793 117.777 20.3711 117.848 19.9492L118.691 14.8164L115.035 11.1953C114.719 10.9141 114.613 10.457 114.754 10.0703C114.895 9.64844 115.246 9.36719 115.668 9.29688L120.73 8.55859L122.98 3.88281C123.156 3.49609 123.543 3.25 124 3.25C124.422 3.25 124.809 3.49609 124.984 3.88281L127.27 8.55859Z" fill="#FFBA61"/>
</svg>
