<svg width="1506" height="102" viewBox="0 0 1506 102" fill="none" xmlns="http://www.w3.org/2000/svg">
<path d="M0.0796251 100V3.43999H18.8476V83.544H68.0796V100H0.0796251ZM146.55 83.544V100H79.5015V3.43999H145.326V19.896H98.2695V43.152H138.934V58.384H98.2695V83.544H146.55ZM233.397 19.896H202.525V100H183.893V19.896H153.021V3.43999H233.397V19.896ZM240.726 35.672L243.854 19.08H238.414V0.719997H256.638V19.352L251.878 35.672H240.726ZM331.201 28.736C330.567 28.1013 329.388 27.24 327.665 26.152C326.033 25.064 323.993 24.0213 321.545 23.024C319.188 22.0267 316.604 21.1653 313.793 20.44C310.983 19.624 308.127 19.216 305.225 19.216C300.148 19.216 296.295 20.168 293.665 22.072C291.127 23.976 289.857 26.6507 289.857 30.096C289.857 32.7253 290.673 34.8107 292.305 36.352C293.937 37.8933 296.385 39.208 299.649 40.296C302.913 41.384 306.993 42.5627 311.889 43.832C318.236 45.3733 323.721 47.2773 328.345 49.544C333.06 51.72 336.641 54.6213 339.089 58.248C341.628 61.784 342.897 66.4987 342.897 72.392C342.897 77.56 341.945 82.0027 340.041 85.72C338.137 89.3467 335.508 92.2933 332.153 94.56C328.799 96.8267 324.991 98.504 320.729 99.592C316.468 100.589 311.935 101.088 307.129 101.088C302.324 101.088 297.519 100.589 292.713 99.592C287.908 98.5947 283.284 97.1893 278.841 95.376C274.399 93.472 270.319 91.2053 266.601 88.576L274.897 72.392C275.713 73.208 277.164 74.296 279.249 75.656C281.335 76.9253 283.873 78.24 286.865 79.6C289.857 80.8693 293.121 81.9573 296.657 82.864C300.193 83.7707 303.775 84.224 307.401 84.224C312.479 84.224 316.332 83.3627 318.961 81.64C321.591 79.9173 322.905 77.4693 322.905 74.296C322.905 71.3947 321.863 69.128 319.777 67.496C317.692 65.864 314.791 64.4587 311.073 63.28C307.356 62.0107 302.959 60.6507 297.881 59.2C291.807 57.4773 286.729 55.5733 282.649 53.488C278.569 51.312 275.532 48.592 273.537 45.328C271.543 42.064 270.545 37.984 270.545 33.088C270.545 26.4693 272.087 20.9387 275.169 16.496C278.343 11.9627 282.604 8.56266 287.953 6.296C293.303 3.93866 299.241 2.76 305.769 2.76C310.303 2.76 314.564 3.25866 318.553 4.25599C322.633 5.25333 326.441 6.568 329.977 8.2C333.513 9.832 336.687 11.6 339.497 13.504L331.201 28.736ZM389.752 100V3.43999H430.688C435.13 3.43999 439.21 4.34666 442.928 6.15999C446.645 7.97333 449.864 10.4213 452.584 13.504C455.394 16.5867 457.57 20.032 459.112 23.84C460.653 27.648 461.424 31.5467 461.424 35.536C461.424 40.976 460.154 46.144 457.616 51.04C455.077 55.936 451.586 59.9253 447.144 63.008C442.701 66.0907 437.442 67.632 431.368 67.632H408.52V100H389.752ZM408.52 51.176H430.28C432.546 51.176 434.586 50.5413 436.4 49.272C438.213 48.0027 439.664 46.1893 440.752 43.832C441.84 41.384 442.384 38.6187 442.384 35.536C442.384 32.1813 441.749 29.3253 440.48 26.968C439.301 24.6107 437.714 22.8427 435.72 21.664C433.816 20.4853 431.73 19.896 429.464 19.896H408.52V51.176ZM474.486 100V3.43999H493.254V83.544H542.486V100H474.486ZM580.156 3.43999H599.196L634.692 100H615.38L606.404 75.928H572.676L563.836 100H544.524L580.156 3.43999ZM603.004 62.736L589.676 22.888L575.804 62.736H603.004ZM645.936 3.43999L669.736 48.864L693.944 3.43999H714.208L679.12 66.272V100H660.488V66L625.536 3.43999H645.936ZM820.694 19.896H789.822V100H771.19V19.896H740.318V3.43999H820.694V19.896ZM913.873 3.43999V100H895.241V58.792H851.449V100H832.681V3.43999H851.449V42.472H895.241V3.43999H913.873ZM1001.07 83.544V100H934.017V3.43999H999.841V19.896H952.785V43.152H993.449V58.384H952.785V83.544H1001.07ZM1088.49 100.68C1082.23 100.68 1076.29 99.4107 1070.67 96.872C1065.14 94.3333 1060.25 90.8427 1055.98 86.4C1051.81 81.8667 1048.55 76.608 1046.19 70.624C1043.84 64.64 1042.66 58.1573 1042.66 51.176C1042.66 44.5573 1043.84 38.3467 1046.19 32.544C1048.55 26.6507 1051.86 21.4827 1056.12 17.04C1060.38 12.5973 1065.37 9.10666 1071.08 6.568C1076.79 4.02933 1083 2.76 1089.71 2.76C1098.78 2.76 1106.53 4.70933 1112.97 8.60799C1119.5 12.416 1124.39 17.4933 1127.66 23.84L1113.65 34.176C1111.2 29.3707 1107.76 25.6987 1103.31 23.16C1098.96 20.6213 1094.2 19.352 1089.03 19.352C1084.95 19.352 1081.24 20.2133 1077.88 21.936C1074.53 23.6587 1071.62 26.016 1069.18 29.008C1066.73 32 1064.82 35.4453 1063.46 39.344C1062.2 43.2427 1061.56 47.368 1061.56 51.72C1061.56 56.344 1062.24 60.6053 1063.6 64.504C1065.05 68.4027 1067.05 71.8027 1069.58 74.704C1072.21 77.6053 1075.25 79.9173 1078.7 81.64C1082.14 83.272 1085.95 84.088 1090.12 84.088C1095.02 84.088 1099.69 82.8187 1104.13 80.28C1108.66 77.7413 1112.88 74.024 1116.78 69.128V87.624C1108.71 96.328 1099.28 100.68 1088.49 100.68ZM1115.42 64.096H1095.97V50.36H1130.92V100H1115.42V64.096ZM1173.16 3.43999H1192.2L1227.7 100H1208.39L1199.41 75.928H1165.68L1156.84 100H1137.53L1173.16 3.43999ZM1196.01 62.736L1182.68 22.888L1168.81 62.736H1196.01ZM1317.03 100V36.624L1292.28 83.816H1281.81L1257.06 36.624V100H1238.29V3.43999H1258.42L1286.98 58.384L1315.81 3.43999H1335.8V100H1317.03ZM1423.01 83.544V100H1355.96V3.43999H1421.79V19.896H1374.73V43.152H1415.39V58.384H1374.73V83.544H1423.01ZM1495.17 28.736C1494.54 28.1013 1493.36 27.24 1491.63 26.152C1490 25.064 1487.96 24.0213 1485.51 23.024C1483.16 22.0267 1480.57 21.1653 1477.76 20.44C1474.95 19.624 1472.1 19.216 1469.19 19.216C1464.12 19.216 1460.26 20.168 1457.63 22.072C1455.1 23.976 1453.83 26.6507 1453.83 30.096C1453.83 32.7253 1454.64 34.8107 1456.27 36.352C1457.91 37.8933 1460.35 39.208 1463.62 40.296C1466.88 41.384 1470.96 42.5627 1475.86 43.832C1482.2 45.3733 1487.69 47.2773 1492.31 49.544C1497.03 51.72 1500.61 54.6213 1503.06 58.248C1505.6 61.784 1506.87 66.4987 1506.87 72.392C1506.87 77.56 1505.91 82.0027 1504.01 85.72C1502.11 89.3467 1499.48 92.2933 1496.12 94.56C1492.77 96.8267 1488.96 98.504 1484.7 99.592C1480.44 100.589 1475.9 101.088 1471.1 101.088C1466.29 101.088 1461.49 100.589 1456.68 99.592C1451.88 98.5947 1447.25 97.1893 1442.81 95.376C1438.37 93.472 1434.29 91.2053 1430.57 88.576L1438.87 72.392C1439.68 73.208 1441.13 74.296 1443.22 75.656C1445.3 76.9253 1447.84 78.24 1450.83 79.6C1453.83 80.8693 1457.09 81.9573 1460.63 82.864C1464.16 83.7707 1467.74 84.224 1471.37 84.224C1476.45 84.224 1480.3 83.3627 1482.93 81.64C1485.56 79.9173 1486.87 77.4693 1486.87 74.296C1486.87 71.3947 1485.83 69.128 1483.75 67.496C1481.66 65.864 1478.76 64.4587 1475.04 63.28C1471.32 62.0107 1466.93 60.6507 1461.85 59.2C1455.78 57.4773 1450.7 55.5733 1446.62 53.488C1442.54 51.312 1439.5 48.592 1437.51 45.328C1435.51 42.064 1434.51 37.984 1434.51 33.088C1434.51 26.4693 1436.06 20.9387 1439.14 16.496C1442.31 11.9627 1446.57 8.56266 1451.92 6.296C1457.27 3.93866 1463.21 2.76 1469.74 2.76C1474.27 2.76 1478.53 3.25866 1482.52 4.25599C1486.6 5.25333 1490.41 6.568 1493.95 8.2C1497.48 9.832 1500.66 11.6 1503.47 13.504L1495.17 28.736Z" fill="#727476" fill-opacity="0.08"/>
</svg>
