<svg width="48" height="48" viewBox="0 0 48 48" fill="none" xmlns="http://www.w3.org/2000/svg">
<rect width="48" height="48" rx="24" fill="#F19011"/>
<path d="M26.25 26.25C30.7969 26.25 34.5 29.9531 34.5 34.5C34.5 35.3438 33.7969 36 33 36H15C14.1562 36 13.5 35.3438 13.5 34.5C13.5 29.9531 17.1562 26.25 21.75 26.25H26.25ZM15.75 33.75H32.2031C31.8281 30.7969 29.2969 28.5 26.25 28.5H21.75C18.6562 28.5 16.125 30.7969 15.75 33.75ZM24 24C20.6719 24 18 21.3281 18 18C18 14.7188 20.6719 12 24 12C27.2812 12 30 14.7188 30 18C30 21.3281 27.2812 24 24 24ZM24 14.25C21.8906 14.25 20.25 15.9375 20.25 18C20.25 20.1094 21.8906 21.75 24 21.75C26.0625 21.75 27.75 20.1094 27.75 18C27.75 15.9375 26.0625 14.25 24 14.25Z" fill="white"/>
</svg>
