<svg width="48" height="48" viewBox="0 0 48 48" fill="none" xmlns="http://www.w3.org/2000/svg">
<rect width="48" height="48" rx="24" fill="#F19011"/>
<path d="M20.9531 22.5L21 27.75C21 28.5938 20.2969 29.25 19.5 29.25H18.75C17.0625 29.25 15.75 27.9375 15.75 26.25V24.0469C15.75 22.3594 17.0625 21 18.75 21H19.4531C20.25 21 20.9531 21.7031 20.9531 22.5ZM24 12C30.7031 12 35.7656 17.625 36 24V30.75C36 33.0469 34.125 34.875 31.875 34.875H26.6719C26.2969 35.5781 25.5469 36 24.75 36H23.2031C21.8438 36 20.7656 34.7812 21 33.3281C21.2344 32.25 22.2188 31.5 23.2969 31.5H24.75C25.5469 31.5 26.2969 31.9688 26.6719 32.625H31.875C32.9062 32.625 33.75 31.8281 33.75 30.75V24C33.75 18.6562 29.3438 14.2969 24 14.2969C18.6094 14.2969 14.25 18.6562 14.25 24V25.875C14.25 26.5312 13.6406 27 13.0781 27C12.4688 27 12 26.5312 12 25.875V24C12.1875 17.625 17.25 12 24 12ZM29.25 29.25H28.5C27.6562 29.25 27 28.5938 27 27.75V22.5469C27 21.7031 27.6562 21 28.5 21H29.25C30.8906 21 32.25 22.3594 32.25 24.0469V26.25C32.25 27.9375 30.8906 29.25 29.25 29.25Z" fill="white"/>
</svg>
