<svg width="48" height="48" viewBox="0 0 48 48" fill="none" xmlns="http://www.w3.org/2000/svg">
<rect width="48" height="48" rx="24" fill="#F19011"/>
<path d="M15 12C15.5156 12 15.9844 12.4219 16.0781 12.9375L16.1719 13.5H35.8594C36.8438 13.5 37.5938 14.4844 37.3125 15.4219L34.7812 24.4219C34.5938 25.0781 34.0312 25.5 33.3281 25.5H18.4688L18.8906 27.75H33.375C33.9844 27.75 34.5 28.2656 34.5 28.875C34.5 29.5312 33.9844 30 33.375 30H17.9531C17.4375 30 16.9688 29.625 16.875 29.1094L14.0625 14.25H11.625C10.9688 14.25 10.5 13.7812 10.5 13.125C10.5 12.5156 10.9688 12 11.625 12H15ZM16.5 33.75C16.5 32.5312 17.4844 31.5 18.75 31.5C19.9688 31.5 21 32.5312 21 33.75C21 35.0156 19.9688 36 18.75 36C17.4844 36 16.5 35.0156 16.5 33.75ZM34.5 33.75C34.5 35.0156 33.4688 36 32.25 36C30.9844 36 30 35.0156 30 33.75C30 32.5312 30.9844 31.5 32.25 31.5C33.4688 31.5 34.5 32.5312 34.5 33.75Z" fill="white"/>
</svg>
