<svg width="48" height="48" viewBox="0 0 48 48" fill="none" xmlns="http://www.w3.org/2000/svg">
<rect width="48" height="48" rx="24" fill="#F19011"/>
<path d="M28.4062 13.9219L22.4062 34.9219C22.1719 35.7188 21.375 36.1875 20.5781 35.9531C19.7812 35.7188 19.3125 34.9219 19.5469 34.125L25.5469 13.125C25.7812 12.3281 26.5781 11.8594 27.375 12.0938C28.1719 12.3281 28.6406 13.125 28.4062 13.9219ZM33.2812 17.7188L38.5312 22.9688C39.1406 23.5312 39.1406 24.5156 38.5312 25.0781L33.2812 30.3281C32.7188 30.9375 31.7344 30.9375 31.1719 30.3281C30.5625 29.7656 30.5625 28.7812 31.1719 28.2188L35.3438 24L31.1719 19.8281C30.5625 19.2656 30.5625 18.2812 31.1719 17.7188C31.7344 17.1094 32.7188 17.1094 33.2812 17.7188ZM16.7812 19.8281L12.6094 24L16.7812 28.2188C17.3906 28.7812 17.3906 29.7656 16.7812 30.3281C16.2188 30.9375 15.2344 30.9375 14.6719 30.3281L9.42188 25.0781C8.8125 24.5156 8.8125 23.5312 9.42188 22.9688L14.6719 17.7188C15.2344 17.1094 16.2188 17.1094 16.7812 17.7188C17.3906 18.2812 17.3906 19.2656 16.7812 19.8281Z" fill="white"/>
</svg>
