<svg width="48" height="48" viewBox="0 0 48 48" fill="none" xmlns="http://www.w3.org/2000/svg">
<rect width="48" height="48" rx="24" fill="#F19011"/>
<path d="M32.9531 13.5C34.6406 13.5 35.9531 14.8594 35.9531 16.5V31.5C35.9531 33.1875 34.5938 34.5 32.9531 34.5H14.9531C13.3125 34.5 11.9531 33.1875 11.9531 31.5V16.5C11.9531 14.8594 13.3125 13.5 14.9531 13.5H32.9531ZM17.2031 16.5C15.9844 16.5 14.9531 17.5312 14.9531 18.75C14.9531 20.0156 15.8906 21 17.2031 21C18.4688 21 19.4531 20.0156 19.4531 18.75C19.4531 17.5312 18.4219 16.5 17.2031 16.5ZM32.9062 31.125C33 30.8906 33 30.5625 32.8594 30.375L26.8594 21.375C26.7188 21.1406 26.4844 21 26.25 21C25.9688 21 25.7344 21.1406 25.5938 21.375L21.2344 27.9375L19.6875 25.8281C19.5469 25.6406 19.3594 25.5 19.125 25.5C18.8438 25.5 18.6562 25.6406 18.5156 25.8281L15.2344 30.3281C15.0469 30.5625 15.0469 30.8438 15.1406 31.125C15.2812 31.3594 15.5156 31.5 15.8438 31.5H32.25C32.4844 31.5 32.7656 31.3594 32.9062 31.125Z" fill="white"/>
</svg>
