<svg width="18" height="16" viewBox="0 0 18 16" fill="none" xmlns="http://www.w3.org/2000/svg">
<path d="M0 3.75C0 2.51953 0.984375 1.5 2.25 1.5H15.75C16.9805 1.5 18 2.51953 18 3.75V12.75C18 14.0156 16.9805 15 15.75 15H2.25C0.984375 15 0 14.0156 0 12.75V3.75ZM1.6875 3.75V4.55859L7.73438 9.51562C8.47266 10.1133 9.49219 10.1133 10.2305 9.51562L16.3125 4.55859V3.75C16.3125 3.46875 16.0312 3.1875 15.75 3.1875H2.25C1.93359 3.1875 1.6875 3.46875 1.6875 3.75ZM1.6875 6.73828V12.75C1.6875 13.0664 1.93359 13.3125 2.25 13.3125H15.75C16.0312 13.3125 16.3125 13.0664 16.3125 12.75V6.73828L11.3203 10.8164C9.94922 11.9414 8.01562 11.9414 6.64453 10.8164L1.6875 6.73828Z" fill="white"/>
</svg>
