<svg width="22" height="32" viewBox="0 0 22 32" fill="none" xmlns="http://www.w3.org/2000/svg">
<path d="M20.9609 7.44531L18.4609 23.6562C18.4219 24.0469 18.1875 24.3984 17.8359 24.5938C17.6406 24.6719 17.4453 24.75 17.2109 24.75C17.0547 24.75 16.8984 24.7109 16.7422 24.6328L11.9766 22.6406L9.98438 25.6094C9.82812 25.8828 9.55469 26 9.28125 26C8.85156 26 8.5 25.6484 8.5 25.2188V21.4688C8.5 21.1562 8.57812 20.8828 8.73438 20.6875L17.25 9.75L5.76562 20.1016L1.74219 18.4219C1.3125 18.2266 1 17.8359 1 17.3281C0.960938 16.7812 1.19531 16.3906 1.625 16.1562L19.125 6.19531C19.5156 5.96094 20.0625 5.96094 20.4531 6.23438C20.8438 6.50781 21.0391 6.97656 20.9609 7.44531Z" fill="white"/>
</svg>
