<svg width="19" height="19" viewBox="0 0 19 19" fill="none" xmlns="http://www.w3.org/2000/svg">
<path d="M17.9648 13.8555L17.1211 17.4062C17.0156 17.9336 16.5938 18.2852 16.0664 18.2852C7.20703 18.25 0 11.043 0 2.18359C0 1.65625 0.316406 1.23438 0.84375 1.12891L4.39453 0.285156C4.88672 0.179688 5.41406 0.460938 5.625 0.917969L7.27734 4.75C7.45312 5.20703 7.34766 5.73438 6.96094 6.01562L5.0625 7.5625C6.25781 9.98828 8.22656 11.957 10.6875 13.1523L12.2344 11.2539C12.5156 10.9023 13.043 10.7617 13.5 10.9375L17.332 12.5898C17.7891 12.8359 18.0703 13.3633 17.9648 13.8555Z" fill="white"/>
</svg>
