<svg width="16" height="17" viewBox="0 0 16 17" fill="none" xmlns="http://www.w3.org/2000/svg">
<path d="M13.4844 2.69531C14.9609 4.17188 15.875 6.10547 15.875 8.21484C15.875 12.5039 12.2891 16.0195 7.96484 16.0195C6.66406 16.0195 5.39844 15.668 4.23828 15.0703L0.125 16.125L1.21484 12.082C0.546875 10.9219 0.160156 9.58594 0.160156 8.17969C0.160156 3.89062 3.67578 0.375 7.96484 0.375C10.0742 0.375 12.043 1.21875 13.4844 2.69531ZM7.96484 14.6836C11.5508 14.6836 14.5391 11.7656 14.5391 8.21484C14.5391 6.45703 13.8008 4.83984 12.5703 3.60938C11.3398 2.37891 9.72266 1.71094 8 1.71094C4.41406 1.71094 1.49609 4.62891 1.49609 8.17969C1.49609 9.41016 1.84766 10.6055 2.48047 11.6602L2.65625 11.9062L1.98828 14.2969L4.44922 13.6289L4.66016 13.7695C5.67969 14.3672 6.80469 14.6836 7.96484 14.6836ZM11.5508 9.83203C11.7266 9.9375 11.8672 9.97266 11.9023 10.0781C11.9727 10.1484 11.9727 10.5352 11.7969 10.9922C11.6211 11.4492 10.8477 11.8711 10.4961 11.9062C9.86328 12.0117 9.37109 11.9766 8.14062 11.4141C6.17188 10.5703 4.90625 8.60156 4.80078 8.49609C4.69531 8.35547 4.02734 7.44141 4.02734 6.45703C4.02734 5.50781 4.51953 5.05078 4.69531 4.83984C4.87109 4.62891 5.08203 4.59375 5.22266 4.59375C5.32812 4.59375 5.46875 4.59375 5.57422 4.59375C5.71484 4.59375 5.85547 4.55859 6.03125 4.94531C6.17188 5.33203 6.59375 6.28125 6.62891 6.38672C6.66406 6.49219 6.69922 6.59766 6.62891 6.73828C6.27734 7.47656 5.85547 7.44141 6.06641 7.79297C6.83984 9.09375 7.57812 9.55078 8.73828 10.1133C8.91406 10.2188 9.01953 10.1836 9.16016 10.0781C9.26562 9.9375 9.65234 9.48047 9.75781 9.30469C9.89844 9.09375 10.0391 9.12891 10.2148 9.19922C10.3906 9.26953 11.3398 9.72656 11.5508 9.83203Z" fill="white"/>
</svg>
