
<svg xmlns="http://www.w3.org/2000/svg" xml:space="preserve" width="500" height="500" version="1.1" style="shape-rendering:geometricPrecision; text-rendering:geometricPrecision; image-rendering:optimizeQuality; fill-rule:evenodd; clip-rule:evenodd"
viewBox="0 0 21000 29700"
 xmlns:xlink="http://www.w3.org/1999/xlink"
 xmlns:xodm="http://www.corel.com/coreldraw/odm/2003">
 <defs>
  <style type="text/css">
   <![CDATA[
    .fil0 {fill:white}
   ]]>
  </style>
 </defs>
 <g id="Layer_x0020_1">
  <metadata id="CorelCorpID_0Corel-Layer"/>
  <path class="fil0" d="M18116.97 12579.92c-61.94,-6.47 -575.85,105.71 -675.97,125.36 -109.64,21.51 -229.87,40.07 -333.29,68.94 -96.24,26.86 -239.54,60.9 -338.71,73.83 -57.72,30.36 -448.12,109.93 -564.98,142.93 -191.93,54.2 -376.84,105.48 -563.02,155.29 -256.52,68.63 -559.17,171.81 -815.23,256.73 -77.2,25.61 -190.1,72.81 -268.04,90.94l-336.28 117.42 -33.09 18.71c-737.36,310.88 -1673.49,638.63 -2449.52,847.98 -286.2,77.21 -604.24,171.87 -894.72,225.23 -59.15,24.38 -238.16,57.82 -315.07,73.71 -113.66,23.47 -228.4,52.13 -341.42,72.46 -229.03,41.19 -453.04,88.97 -686.84,131.02 -231.81,41.7 -464.6,84.65 -701.64,115.88 -226.33,29.83 -501.69,59.61 -725.94,104.14l-1343.72 139.44c-211.95,27.98 -1995.85,153.65 -2074.24,108.05 1310.79,31.28 2636.44,12.27 3948.89,12.27 3956.38,0 7912.76,0 11869.14,0l0 -3188.45c-399.38,26.69 -801.11,81.62 -1193.07,129.19 -197.57,23.97 -391.58,53.24 -590.95,81.32 -174.18,24.54 -409.86,54.55 -572.29,97.61z"/>
 </g>
</svg>
